<?xml version="1.0" encoding="utf-8"?>
<svg xmlns="http://www.w3.org/2000/svg" viewBox="0 0 500 500" style="">
  <path d="M 172.833 3.482 L 332.133 3.482 L 332.133 150.12 L 309.014 150.12 L 276.47 221.462 C 269.739 219.042 262.941 217.833 256.076 217.833 C 250.617 217.833 245.289 218.466 240.092 219.734 C 235.791 220.782 231.659 222.23 227.696 224.079 L 193.4 150.12 L 172.833 150.12 L 172.833 3.482 Z M 332.133 150.12 L 354.502 151.404 L 332.133 150.12 Z M 480.055 151.404 L 480.055 310.704 L 354.502 310.704 L 354.502 306.365 L 348.934 306.365 C 342.617 306.365 337.997 304.707 335.075 301.39 C 332.864 298.942 331.758 292.782 331.758 282.911 L 331.758 177.958 C 331.758 168.876 332.627 163.111 334.364 160.663 C 337.207 156.556 342.063 154.503 348.934 154.503 L 354.502 154.503 L 354.502 151.404 L 480.055 151.404 Z M 354.502 310.748 L 332.133 310.748 L 354.502 310.748 Z M 332.133 458.626 L 172.833 458.626 L 172.833 310.748 L 190.371 310.748 C 192.579 319.462 196.326 327.43 201.612 334.652 C 213.715 351.321 230.883 359.656 253.116 359.656 C 259.233 359.656 264.94 358.972 270.235 357.606 C 275.53 356.238 280.447 354.121 284.986 351.255 C 289.524 348.387 293.734 344.753 297.615 340.353 C 301.496 335.952 305.114 330.751 308.468 324.75 L 305.41 322.75 C 301.726 327.484 298.355 331.618 295.296 335.152 C 292.238 338.686 289.064 341.62 285.775 343.954 C 282.486 346.287 278.836 348.021 274.823 349.154 C 270.811 350.288 266.042 350.854 260.516 350.854 C 255.649 350.854 250.962 350.254 246.456 349.054 C 241.95 347.854 237.79 346.087 233.975 343.753 C 230.159 341.419 226.755 338.519 223.762 335.051 C 220.769 331.584 218.286 327.55 216.313 322.95 C 212.432 313.882 210.492 303.246 210.492 291.045 C 210.492 283.043 211.084 275.826 212.268 269.391 C 213.351 263.505 214.874 258.191 216.838 253.449 L 243.152 310.748 L 247.061 310.748 L 282.893 232.575 C 283.57 233.07 284.234 233.59 284.887 234.135 C 288.636 237.269 291.975 241.303 294.902 246.238 C 297.829 251.172 300.312 257.073 302.351 263.941 L 305.41 263.941 L 302.351 217.833 L 298.898 217.833 C 298.306 220.567 297.302 222.817 295.889 224.584 C 294.474 226.351 292.715 227.235 290.61 227.235 C 289.729 227.29 288.204 226.786 286.035 225.722 L 309.014 175.589 L 309.014 282.911 C 309.014 291.992 308.145 297.757 306.408 300.205 C 303.565 304.312 298.748 306.365 291.956 306.365 L 286.27 306.365 L 286.27 310.748 L 332.133 310.748 L 332.133 458.626 Z M 172.833 310.704 L 147.913 310.704 L 172.833 310.704 Z M 24.911 310.704 L 24.911 151.404 L 147.913 151.404 L 147.913 154.503 C 151.23 154.503 154.033 154.7 156.323 155.095 C 158.613 155.49 160.568 156.043 162.187 156.754 C 163.806 157.465 165.089 158.314 166.036 159.301 C 166.984 160.288 167.734 161.373 168.287 162.558 C 169.866 165.875 170.656 171.008 170.656 177.958 L 170.656 282.911 C 170.656 291.992 169.787 297.757 168.05 300.205 C 165.207 304.312 160.39 306.365 153.598 306.365 L 147.913 306.365 L 147.913 310.704 L 24.911 310.704 Z M 147.913 151.404 L 172.833 150.12 L 147.913 151.404 Z M 209.264 236.957 C 206.359 239.839 203.71 242.999 201.315 246.437 C 196.777 252.838 193.422 259.823 191.252 267.391 C 189.081 274.959 187.995 282.777 187.995 290.844 C 187.995 295.68 188.371 300.334 189.123 304.805 C 187.18 303.988 185.565 302.85 184.279 301.39 C 182.147 298.942 181.081 292.782 181.081 282.911 L 181.081 175.589 L 209.264 236.957 Z M 231.866 233.072 C 232.522 232.586 233.192 232.124 233.876 231.685 C 240.783 227.251 248.709 225.034 257.655 225.034 C 262.983 225.034 267.916 225.768 272.455 227.235 C 272.856 227.365 273.255 227.501 273.65 227.644 L 251.681 275.803 L 231.866 233.072 Z" style="fill: rgb(203, 0, 0);"/>
  <text style="fill: rgb(88, 94, 116); font-family: Constantia; font-size: 69px; letter-spacing: 7.9px; white-space: pre;" transform="matrix(1.071711, 0, 0, 1.103896, -1.005608, -48.968915)" x="14.023" y="452.817">MI CLINICA</text>
</svg>